<svg width="100" height="100" viewBox="0 0 100 100" fill="none" xmlns="http://www.w3.org/2000/svg">
<g clip-path="url(#clip0_502_5)">
<path d="M98.9823 60.0604C104.536 33.0095 87.1082 6.57865 60.0573 1.02543C33.0064 -4.5278 6.57551 12.8995 1.02228 39.9504C-4.53094 67.0013 12.8964 93.4322 39.9473 98.9854C66.9982 104.539 93.4291 87.1113 98.9823 60.0604Z" fill="#FFFF00"/>
<path d="M57.9659 46.2392C60.9354 45.0343 62.7486 43.1486 63.9311 41.7342C66.1911 39.1413 67.1108 35.9721 67.1108 32.9601C67.1108 30.5243 66.4276 25.6788 62.1705 22.3525C59.2273 20.1 56.6257 19 50.424 19H47.2706C47.1655 19 47.0866 19 46.9553 19H34V80H71V68.2924C71 57.0824 67.3736 49.5393 57.9659 46.2392ZM62.6172 76.6213H55.9425V56.2705H48.2429V76.6475H42.3565V22.0382H48.4268C50.6868 22.0382 54.1293 22.5359 56.5732 25.5479C57.8345 27.067 58.6229 29.1099 58.8857 31.1267H48.2692V34.1387H58.9908C58.9119 36.0769 58.5178 38.2507 56.5994 40.5556C54.9176 42.6509 52.1584 44.5891 48.2692 44.5891C48.2429 44.5891 48.2166 44.5891 48.1903 44.5891V47.6273C58.5966 47.6273 62.6435 54.5157 62.6435 67.14L62.6172 76.6213Z" fill="black"/>
</g>
<defs>
<clipPath id="clip0_502_5">
<rect width="100" height="100" fill="white"/>
</clipPath>
</defs>
</svg>
