<svg width="100" height="100" viewBox="0 0 100 100" fill="none" xmlns="http://www.w3.org/2000/svg">
<g clip-path="url(#clip0_502_2)">
<path d="M98.9823 60.0604C104.536 33.0095 87.1082 6.57865 60.0573 1.02543C33.0064 -4.5278 6.57551 12.8995 1.02228 39.9504C-4.53094 67.0013 12.8964 93.4322 39.9473 98.9854C66.9982 104.539 93.4291 87.1113 98.9823 60.0604Z" fill="#FFFF00"/>
<path d="M56.016 46.9014C58.2896 45.9759 59.678 44.5272 60.5834 43.4407C62.3138 41.4487 63.018 39.0141 63.018 36.7002C63.018 34.829 62.4949 31.1067 59.2353 28.5513C56.9818 26.8209 54.9898 25.9759 50.2413 25.9759H47.8269C47.7464 25.9759 47.686 25.9759 47.5854 25.9759H37.6659V72.837H65.9959V63.8431C65.9959 55.2314 63.2192 49.4366 56.016 46.9014ZM59.5774 70.2415H54.4667V54.6077H48.5713V70.2616H44.0643V28.3099H48.7122C50.4425 28.3099 53.0784 28.6922 54.9496 31.0061C55.9154 32.1731 56.519 33.7425 56.7202 35.2918H48.5914V37.6057H56.8007C56.7403 39.0946 56.4385 40.7646 54.9697 42.5352C53.682 44.1449 51.5693 45.6338 48.5914 45.6338C48.5713 45.6338 48.5512 45.6338 48.5311 45.6338V47.9678C56.4989 47.9678 59.5975 53.2596 59.5975 62.9578L59.5774 70.2415ZM9.41639 45.2515L7.06227 45.0503C7.02203 45.4125 6.98179 45.7344 6.96167 45.996C6.98179 45.7344 7.02203 45.4125 7.06227 45.0503L9.41639 45.2515ZM92.4949 58.6318C92.6961 58.33 92.8369 57.9879 92.8973 57.6056C92.8369 57.9879 92.6961 58.33 92.4949 58.6318ZM7.64577 56.8209L10.9657 57.6459L7.64577 56.8209ZM34.8892 12.1731C34.4868 10.9256 34.9094 9.69821 35.9154 9.03423C34.9094 9.69821 34.5069 10.9457 34.8892 12.1731C35.3721 13.6419 36.8409 14.5071 38.3299 14.0242C39.0743 13.7827 39.6176 13.2797 39.9194 12.6358C39.6377 13.2596 39.0945 13.7827 38.3299 14.0242C36.8409 14.5071 35.3721 13.6419 34.8892 12.1731ZM39.3963 86.3783L41.0663 86.8612L40.4627 88.9537L41.0663 86.8612L39.3963 86.3783C39.1749 86.3179 38.9536 86.2777 38.7524 86.2576C38.9536 86.2777 39.1749 86.3179 39.3963 86.3783ZM38.853 89.7183L40.1407 90.1006L39.5572 92.1328L40.1407 90.1006L38.853 89.7183C38.6317 89.658 38.4305 89.6177 38.2494 89.6177C38.4305 89.6177 38.6317 89.658 38.853 89.7183ZM38.1689 91.7304C37.3037 91.4889 36.9415 90.9658 37.1025 90.3622C36.9415 90.9658 37.3037 91.4688 38.1689 91.7304ZM10.5432 54.9698L7.64577 56.8209L10.5432 54.9698ZM87.7464 55.6137C87.5452 55.9155 87.4043 56.2576 87.344 56.6399C87.4043 56.2576 87.5452 55.9155 87.7464 55.6137ZM86.2977 33.9236C86.358 33.8632 86.4385 33.823 86.4989 33.7626C86.4385 33.823 86.358 33.8632 86.2977 33.9236ZM86.7403 33.6016C86.7403 33.6016 86.7605 33.6016 86.7403 33.6016C86.7605 33.6016 86.7403 33.6016 86.7403 33.6016ZM89.6578 59.7787C88.3098 59.5372 87.344 58.5111 87.3037 57.2234C87.3238 58.5111 88.3098 59.5372 89.6578 59.7787ZM86.2373 34.004C86.1367 34.1046 86.0361 34.2053 85.9355 34.326C86.016 34.2053 86.1166 34.1046 86.2373 34.004ZM89.3963 33.3602C90.0401 33.6218 90.5633 34.1449 90.845 34.8894C91.3882 36.3783 90.5834 37.8672 89.1347 38.4105C88.9939 38.4507 88.8731 38.4507 88.7323 38.491C88.8731 38.4507 88.9939 38.4708 89.1347 38.4105C90.5834 37.8672 91.3882 36.3783 90.845 34.8894C90.5633 34.1449 90.0401 33.6218 89.3963 33.3602ZM36.3178 86.4789C36.016 87.5453 36.4788 88.2294 37.2836 88.7928C36.6397 88.9135 35.9556 89.2555 35.6941 90.1811C35.5331 90.7244 35.5935 91.1871 35.8349 91.6097C36.1367 92.1731 36.7403 92.656 37.6257 92.9175L40.523 93.662L42.7363 86.0765L39.7584 85.2113C38.0482 84.7083 36.7202 85.1107 36.3178 86.4789ZM39.5572 92.1328L38.1689 91.7304C37.3037 91.4889 36.9415 90.9658 37.1025 90.3622C37.2635 89.8189 37.686 89.5976 38.2494 89.6177C38.4305 89.6177 38.6317 89.658 38.853 89.7183L40.1407 90.1006L39.5572 92.1328ZM40.4627 88.9739L38.8731 88.5111C37.8067 88.2093 37.4244 87.666 37.6055 87.0221C37.7665 86.499 38.1689 86.2374 38.7524 86.2777C38.9536 86.2777 39.1548 86.3179 39.3963 86.3984L41.0663 86.8813L40.4627 88.9739ZM38.8933 88.5111L40.4627 88.9739L38.8933 88.5111C37.8269 88.2093 37.4244 87.666 37.6257 87.0221C37.7866 86.499 38.189 86.2374 38.7725 86.2777C38.189 86.2576 37.7866 86.499 37.6257 87.0221C37.4244 87.666 37.8269 88.1892 38.8933 88.5111ZM37.1025 90.3622C37.2635 89.8189 37.686 89.5976 38.2494 89.6177C37.686 89.5976 37.2635 89.8189 37.1025 90.3622ZM28.7927 83.0584C27.9878 84.4467 28.5713 85.8149 30.1005 86.7203L31.187 87.3642L29.7383 89.8391L30.9254 90.5433L34.9496 83.7022L32.676 82.3743C31.1065 81.3883 29.5975 81.67 28.7927 83.0584ZM31.7906 86.2978L30.7444 85.6942C29.8389 85.1509 29.5371 84.4668 29.9597 83.7626C30.181 83.3803 30.4828 83.159 30.845 83.0986C31.2071 83.0382 31.6096 83.159 32.0522 83.4205L33.1186 84.0443L31.7906 86.2978ZM30.8651 83.0986C31.2273 83.0382 31.6297 83.159 32.0723 83.4205C31.6297 83.159 31.2071 83.0584 30.8651 83.0986ZM30.7645 85.6942C29.8591 85.1509 29.5572 84.4668 29.9798 83.7626C29.5572 84.4668 29.8591 85.1509 30.7645 85.6942ZM28.7927 80.0201L24.2252 86.5191L23.0985 85.7143L27.6659 79.2153L28.7927 80.0201ZM7.8671 49.0543C9.23531 49.1549 9.97978 48.3501 10.2615 47.7063L11.6498 48.8934C12.012 49.2153 12.2735 49.8592 12.1126 50.2817L13.3198 50.2616C13.6216 49.6177 13.4405 48.672 12.515 47.8873L10.6438 46.3179L10.7242 45.3521L13.5814 45.6137L13.7826 44.2052L5.91539 43.5815C5.83491 44.0242 5.65382 45.7545 5.6337 45.996C5.45261 48.1489 6.49889 48.9336 7.8671 49.0543ZM7.06227 45.0704L9.41639 45.2716L9.33591 46.1771C9.27555 46.9819 8.81277 47.666 7.98782 47.5855C7.36408 47.5453 6.86106 47.1429 6.96167 46.0161C6.98179 45.7545 7.02203 45.4326 7.06227 45.0704ZM22.9576 80.6036C21.3077 82.1127 18.7725 82.1328 17.1025 80.3421C16.1166 79.2757 15.7947 77.9477 16.0361 76.7203L17.4244 77.0221C17.2031 77.8672 17.4043 78.7726 18.0482 79.497C19.1146 80.664 20.7846 80.6036 21.9516 79.5372C23.0784 78.491 23.2595 76.8008 22.1931 75.6338C21.5089 74.9095 20.6035 74.6479 19.7182 74.829L19.517 73.4407C20.7846 73.2596 22.1327 73.6821 23.1588 74.7686C24.8289 76.5594 24.6277 79.0745 22.9576 80.6036ZM14.2856 58.4507L12.2937 57.9678C12.1729 57.3441 12.0723 56.7405 11.9717 56.1167C11.8711 55.493 11.7906 54.8692 11.7102 54.2455L13.4405 53.1791L13.3399 51.6499L5.89527 56.4185L6.09648 57.7063L14.6679 59.8994L14.2856 58.4507ZM10.9858 57.6459L7.64577 56.8209L10.5432 54.9698C10.6035 55.4125 10.6639 55.8753 10.7444 56.3179C10.8047 56.7606 10.8852 57.2032 10.9858 57.6459ZM10.9858 57.6459C10.9053 57.2032 10.8248 56.7606 10.7444 56.3179C10.6639 55.8753 10.6035 55.4326 10.5432 54.9698C10.6035 55.4125 10.6639 55.8753 10.7444 56.3179C10.8047 56.7606 10.8852 57.2032 10.9858 57.6459ZM18.5713 71.328L12.5753 74.2656C12.3138 73.8833 12.0723 73.4809 11.8309 73.0986L17.7866 70.1409C17.2434 69.2556 16.7202 68.3702 16.2574 67.4447L10.3017 70.3622C10.0804 69.9397 9.87917 69.5372 9.67796 69.1147L15.6337 66.1972C15.191 65.2515 14.7886 64.2857 14.4265 63.2998L8.4506 66.2374C8.28963 65.7948 8.12867 65.3723 7.9677 64.9296L13.9637 61.9718L15.1307 61.3883C16.2172 64.7083 17.7464 67.8471 19.7182 70.7445L18.5713 71.328ZM86.7403 31.992C84.6277 32.7767 83.4808 35.0101 84.3258 37.3038C85.1709 39.5976 87.525 40.5634 89.6377 39.7787C91.7504 38.994 92.8973 36.7606 92.0522 34.4668C91.2071 32.1731 88.8329 31.2073 86.7403 31.992ZM90.845 34.8894C91.3882 36.3783 90.5834 37.8672 89.1347 38.4105C88.9939 38.4507 88.8731 38.4507 88.7323 38.491C87.3842 38.7928 86.0562 38.2294 85.5532 36.9014C85.2112 35.9759 85.3922 35.0503 85.9355 34.3461C86.016 34.2254 86.1367 34.1248 86.2373 34.0242C86.2574 34.004 86.2776 33.9839 86.2977 33.9437C86.358 33.8833 86.4385 33.8431 86.4989 33.7827C86.5794 33.7224 86.6599 33.662 86.7403 33.6016C86.7403 33.6016 86.7403 33.6016 86.7605 33.6016C86.9214 33.501 87.0824 33.4205 87.2635 33.3602C88.0079 33.0785 88.7524 33.0986 89.3963 33.3602C90.0401 33.6218 90.5633 34.1449 90.845 34.8894ZM89.3963 33.3602C88.7524 33.0986 87.9878 33.0785 87.2635 33.3602C87.0824 33.4205 86.9214 33.501 86.7605 33.6016C86.9214 33.501 87.0824 33.4205 87.2635 33.3602C87.9878 33.0785 88.7524 33.0986 89.3963 33.3602ZM88.7323 38.4708C87.3842 38.7727 86.0562 38.2093 85.5532 36.8813C85.2112 35.9558 85.3922 35.0302 85.9355 34.326C85.3922 35.0302 85.2112 35.9558 85.5532 36.8813C86.0562 38.2093 87.3842 38.7727 88.7323 38.4708ZM86.7403 33.6016C86.6599 33.662 86.5794 33.7224 86.4989 33.7827C86.5794 33.7224 86.6599 33.6419 86.7403 33.6016ZM86.2977 33.9236C86.2776 33.9437 86.2574 33.9638 86.2373 34.004C86.2574 33.9638 86.2776 33.9437 86.2977 33.9236ZM90.845 53.0382C88.6116 52.656 86.4989 54.004 86.0763 56.3984C85.6538 58.7928 87.2031 60.825 89.3963 61.2073C91.6297 61.5896 93.7423 60.2415 94.1649 57.8471C94.5874 55.4527 93.0381 53.4205 90.845 53.0382ZM92.8973 57.6056C92.8369 57.9879 92.6961 58.3501 92.4949 58.6318C91.8912 59.5171 90.7846 59.9799 89.6578 59.7787C88.3098 59.5372 87.344 58.5111 87.3037 57.2234C87.3037 57.0423 87.3037 56.8411 87.344 56.66C87.4043 56.2777 87.5452 55.9155 87.7464 55.6338C88.35 54.7485 89.4566 54.2857 90.5834 54.4869C92.1327 54.7485 93.179 56.0564 92.8973 57.6056ZM89.6578 59.7787C90.8047 59.9799 91.9114 59.5372 92.4949 58.6318C91.8912 59.5171 90.7846 59.9799 89.6578 59.7787ZM90.5834 54.4668C89.4365 54.2656 88.3299 54.7083 87.7464 55.6137C88.35 54.7083 89.4566 54.2656 90.5834 54.4668ZM87.2836 57.2032C87.2836 57.0222 87.2836 56.8209 87.3238 56.6399C87.3037 56.8411 87.2836 57.0222 87.2836 57.2032ZM78.7524 27.1228L85.3118 22.8169L86.1568 23.9437L83.4003 25.7545L83.8429 26.4387L88.0884 26.9216L88.9335 28.3099L84.1045 27.6258L83.2997 30.1811C83.018 31.0865 83.018 31.7103 83.4607 32.0926L82.4546 32.7566C81.5089 31.9719 81.6297 30.8049 82.0522 29.6177L82.8772 27.2636L82.354 26.4588L79.5975 28.2696L78.7524 27.1228ZM72.1327 79.336L76.2776 86.0161L75.1307 86.8209L73.4003 84.004L72.7162 84.4266L72.1327 88.6519L70.7242 89.4769L71.5291 84.668L68.9737 83.7626C68.0683 83.4608 67.4446 83.4407 67.0623 83.8632L66.3983 82.8572C67.2232 81.9316 68.3701 82.0725 69.5572 82.5352L71.8912 83.4205L72.6961 82.9175L70.9657 80.1207L72.1327 79.336ZM79.3158 72.1127L85.1307 77.4447L84.2655 78.5111L80.0401 74.6278L81.3279 81.7103L80.3419 82.656L74.5271 77.324L75.5331 76.3783L79.7987 80.3018L78.4908 73.159L79.3158 72.1127ZM64.5673 83.7022L66.9818 91.2274L65.6941 91.7304L63.9436 86.2777L61.5693 93.0785L60.2413 93.4205L57.8269 85.8954L59.1548 85.5735L60.9254 91.0865L63.3198 84.2254L64.5673 83.7022ZM84.7283 61.9316L91.6297 65.9759L90.8651 67.827C90.8651 67.827 85.4929 67.2435 84.5874 67.0423L84.5673 67.0825C85.2514 67.666 88.9536 71.6902 88.9536 71.6902L87.9476 73.4004L80.5834 70.3219L81.3681 69.0543L84.3661 70.3421C85.3118 70.7445 86.4385 71.2475 87.4043 71.7304L87.4244 71.6902C86.68 71.0061 82.6759 66.6197 82.6759 66.6197L83.1991 65.5533C83.1991 65.5533 88.9939 66.2576 89.9999 66.4789L90.02 66.4588C89.0945 65.9557 87.9878 65.3521 87.0421 64.829L84.2454 63.2395L84.7283 61.9316ZM86.0562 42.9376L93.9033 42.1932L94.1246 43.5815L90.8047 43.8833H90.7846C90.8852 44.6278 90.9858 45.3924 91.0663 46.1368C91.1266 46.8813 91.187 47.6459 91.2071 48.4105H91.2273L94.5069 48.1087L94.5673 49.497L86.7202 50.2415L86.68 48.833L89.9194 48.5312H89.9596C89.9395 47.7666 89.8792 47.0222 89.8188 46.2576C89.7383 45.5131 89.6578 44.7485 89.5371 44.004H89.4969L86.2574 44.3059L86.0562 42.9376ZM74.5673 22.837C73.4607 21.831 73.018 20.4829 73.1991 19.2153L74.5874 19.4165C74.4063 20.3018 74.6679 21.2073 75.4124 21.8914C76.4184 22.8169 77.8269 22.7968 78.853 22.0322C78.2695 21.4286 77.6659 20.8451 77.0421 20.2817C76.8007 20.0604 76.5391 19.8189 76.2776 19.5976L77.0824 18.6519C77.344 18.8733 77.6055 19.1147 77.8671 19.3562C78.4908 19.9195 79.0945 20.503 79.678 21.1067C80.3419 20 80.2212 18.6318 79.2152 17.7264C78.4908 17.0825 77.5854 16.9014 76.7403 17.1228L76.4385 15.7344C77.6659 15.4729 78.9939 15.7948 80.0603 16.7606C81.8711 18.4105 81.8912 20.9457 80.3822 22.5956C78.8731 24.2656 76.3782 24.4869 74.5673 22.837ZM38.7122 15.2515C41.0462 14.5071 42.0924 12.1932 41.4083 10.0604C40.7041 7.90747 38.511 6.6801 36.1971 7.42457C33.8832 8.18916 32.8168 10.503 33.5009 12.6157C34.2051 14.7686 36.3983 16.0161 38.7122 15.2515ZM35.9154 9.03423C36.1166 8.89338 36.3178 8.75254 36.5794 8.65193C38.0884 8.16904 39.5371 9.03423 40.02 10.503C40.2615 11.2475 40.2212 12.0121 39.9194 12.6358C39.6377 13.2596 39.0945 13.7827 38.3299 14.0242C36.8208 14.5071 35.3721 13.6419 34.8892 12.1731C34.4868 10.9457 34.9094 9.69821 35.9154 9.03423ZM36.5794 8.65193C36.3178 8.73242 36.1367 8.89338 35.9154 9.01411C36.1166 8.89338 36.3178 8.73242 36.5794 8.65193C38.0884 8.16904 39.5572 9.03423 40.02 10.503C40.2615 11.2475 40.2212 12.0121 39.9194 12.6358C40.2011 12.0121 40.2615 11.2475 40.02 10.503C39.5371 9.03423 38.0683 8.16904 36.5794 8.65193ZM28.0683 20.5433L23.9637 13.8431L25.1106 13.0383L26.8409 15.8552L27.525 15.4326L28.1488 11.2073L29.5572 10.4024L28.7122 15.1912L31.2675 16.0966C32.1729 16.4185 32.7967 16.4387 33.179 15.996L33.8027 17.0423C32.9778 17.9477 31.8309 17.8069 30.6438 17.3441L28.3098 16.4588L27.4848 16.9618L29.1951 19.7586L28.0683 20.5433ZM18.1689 29.3763L13.1186 25.0101C13.3802 24.6278 13.6417 24.2455 13.9234 23.8632L18.9737 28.2093C19.5774 27.3642 20.2011 26.5393 20.8651 25.7545L15.855 21.4085C16.1568 21.0463 16.4586 20.7042 16.7605 20.3421L21.7705 24.6882C22.4747 23.9034 23.1991 23.159 23.9637 22.4346L18.9134 18.0886C19.2353 17.7666 19.5774 17.4447 19.9194 17.1228L24.9697 21.489L25.9556 22.334C23.3198 24.6278 21.0261 27.2636 19.1548 30.2213L18.1689 29.3763ZM55.2715 11.831C55.8953 11.9115 56.519 12.0121 57.1226 12.1328C57.7263 12.2535 58.35 12.3743 58.9536 12.5151L59.3762 14.5071L60.845 14.9296L58.8731 6.31793L57.6055 6.07648L52.6357 13.4004L54.1246 13.5413L55.2715 11.831ZM57.9275 7.82698L58.692 11.167C58.2494 11.0664 57.8067 10.9859 57.3641 10.8853C56.9214 10.8048 56.4788 10.7244 56.0361 10.664L57.9275 7.82698ZM44.3661 13.8028C44.0643 13.823 43.6216 13.7827 43.4003 13.7626L43.4405 12.6157C43.5411 12.6358 43.7222 12.656 43.9033 12.656C44.7081 12.5956 45.4124 12.0322 45.0502 7.28372L45.0301 6.96179L44.9295 5.71431C44.9898 5.71431 45.0703 5.69419 45.1307 5.69419L48.1287 5.47286C48.8731 5.43262 49.6377 5.43262 50.3822 5.43262L50.4828 6.6801L50.9858 13.2395L49.5975 13.3401L49.0945 6.70022C48.2896 6.6801 47.5049 6.72034 46.7202 6.78071C46.5794 6.80083 46.4586 6.80083 46.3178 6.82095L46.3782 7.58553C46.7605 12.6157 45.9355 13.6821 44.3661 13.8028ZM51.6096 90.7244C51.6096 91.6097 50.9053 92.3139 50.02 92.3139C49.1347 92.3139 48.4305 91.6097 48.4305 90.7244C48.4305 89.839 49.1347 89.1348 50.02 89.1348C50.9053 89.1348 51.6096 89.839 51.6096 90.7244ZM10.7041 34.7284C10.7846 33.8632 11.5693 33.2193 12.4546 33.2998C13.3198 33.3803 13.9637 34.165 13.8832 35.0503C13.8027 35.9155 13.018 36.5594 12.1327 36.4789C11.2474 36.3783 10.6035 35.6137 10.7041 34.7284ZM66.9415 13.0383C67.344 12.2535 68.2896 11.9316 69.0743 12.334C69.8591 12.7364 70.181 13.6821 69.7786 14.4668C69.3762 15.2515 68.4305 15.5735 67.6458 15.171C66.8611 14.7686 66.5391 13.823 66.9415 13.0383Z" fill="black"/>
</g>
<defs>
<clipPath id="clip0_502_2">
<rect width="100" height="100" fill="white"/>
</clipPath>
</defs>
</svg>
